<?xml version="1.0" encoding="UTF-8"?>
<svg width="108px" height="52px" viewBox="0 0 108 52" version="1.1" xmlns="http://www.w3.org/2000/svg" xmlns:xlink="http://www.w3.org/1999/xlink">
    <title>logo_design_library</title>
    <defs>
        <rect id="path-1" x="0" y="0" width="108" height="52"></rect>
    </defs>
    <g id="Page-1" stroke="none" stroke-width="1" fill="none" fill-rule="evenodd">
        <g id="PCCUL000100_컬처서브메인" transform="translate(-368.000000, -957.000000)">
            <g id="Group-5" transform="translate(368.000000, 944.000000)">
                <g id="Group" transform="translate(0.000000, -0.000000)">
                    <g id="logo_design_library" transform="translate(0.000000, 13.000000)">
                        <mask id="mask-2" fill="white">
                            <use xlink:href="#path-1"></use>
                        </mask>
                        <use id="Mask" fill="#FFFFFF" xlink:href="#path-1"></use>
                        <g id="Group" mask="url(#mask-2)">
                            <g transform="translate(-9.000000, -12.000000)" id="Brand/Space/DesignLibrary">
                                <g id="Group" transform="translate(9.416667, 19.585477)" fill="#000000">
                                    <path d="M13.8857184,2.71504865 L13.8869563,11.7524757 C13.8869563,12.9688865 13.3039077,13.9178595 12.1811367,14.5821405 L9.59764932,16.0647568 C9.06040279,16.3494486 8.51944258,16.4591351 7.93268024,16.4591351 L0.651380472,16.4665297 C0.40256353,16.4665297 0.313435073,16.3777946 0.313435073,16.1128216 L0.303531911,0.623610811 C0.303531911,0.35987027 0.393898263,0.224302703 0.64147731,0.224302703 L3.00090563,0.224302703 C3.27076679,0.22307027 3.42797948,0.35987027 3.42797948,0.622378378 L3.42797948,0.976086486 C3.42797948,1.28665946 3.56414796,1.39757838 3.88104914,1.30884324 L10.3540033,0.0887351351 C10.7105171,0.0431351351 10.9172456,3.55271368e-15 11.0955026,3.55271368e-15 C12.4670905,3.55271368e-15 13.8820047,1.12397838 13.8857184,2.71504865 M10.6969003,13.6775351 L10.6919487,3.02685405 C10.6919487,2.74092973 10.5334981,2.58441081 10.1967906,2.58441081 L3.83400912,2.58934054 C3.54310374,2.58934054 3.43045527,2.74216216 3.43045527,3.03055135 L3.43788264,13.7021838 C3.43788264,13.9646919 3.54805532,14.1002595 3.82039227,14.1002595 L10.2029801,14.0977946 C10.5396876,14.0977946 10.6969003,13.9646919 10.6969003,13.6775351" id="Fill-1"></path>
                                    <path d="M20.1198826,16.4546984 C18.0067954,16.4546984 16.8134644,14.8007741 16.8134644,13.2750227 L16.8109865,4.90310919 C16.8097507,3.66328216 17.3457594,2.71554162 18.448724,2.07221189 L21.0817272,0.635195676 C21.5731716,0.348038919 22.1141318,0.213703784 22.6526162,0.211238919 L28.4509175,0.210006486 C28.6997345,0.210006486 28.8594229,0.344341622 28.8594229,0.609314595 L28.8594229,2.22256865 C28.8594229,2.46289297 28.6997345,2.57627676 28.4509175,2.57627676 L20.4281185,2.57997405 C20.1607331,2.57997405 20.0468468,2.73526054 20.0468468,3.02118486 L20.0480847,6.58044973 C20.0480847,6.88609297 20.1607331,6.97729297 20.4293564,6.97482811 L27.9124331,6.97359568 C28.209528,6.97359568 28.3667406,7.13011459 28.3667406,7.39139027 L28.3692164,9.00587676 C28.3692164,9.27084973 28.209528,9.38053622 27.9186226,9.38053622 L20.4293564,9.38546595 C20.1632089,9.38546595 20.0505605,9.5432173 20.0505605,9.84886054 L20.055512,13.6730984 C20.055512,13.9602551 20.1669226,14.0921254 20.4330701,14.090893 L28.6848797,14.0871957 C28.9757851,14.0871957 29.1329978,14.1956497 29.1329978,14.4174876 C29.1329978,14.6602768 28.9993051,14.8586984 28.7517261,14.9930335 L26.8404158,16.0566227 C26.3266893,16.342547 25.786967,16.4534659 25.2014425,16.4534659 L20.1198826,16.4546984 Z" id="Fill-3"></path>
                                    <path d="M43.6786382,10.2113189 L43.6811139,11.7839027 C43.6811139,13.0409838 43.1376779,13.9911892 42.061947,14.6098703 L39.4103754,16.0456541 C38.8941731,16.3328108 38.3334065,16.4437297 37.7936842,16.4437297 L31.7898923,16.4498919 C31.4977491,16.4498919 31.3863385,16.3623892 31.3863385,16.0961838 L31.3851006,14.4829297 C31.3851006,14.241373 31.4977491,14.0848541 31.8109366,14.0848541 L40.0825525,14.0786919 C40.3103252,14.0786919 40.48982,13.9480541 40.48982,13.6596649 L40.4885821,9.90321081 C40.4885821,9.61728649 40.3041358,9.462 40.0825525,9.462 L34.2372112,9.46446486 C32.2330588,9.4656973 30.9543131,7.94364324 30.9543131,6.24165405 L30.9530752,4.86995676 C30.9530752,3.65724324 31.4445196,2.70457297 32.5474842,2.06370811 L35.1990558,0.630389189 C35.692976,0.338302703 36.2537425,0.203967568 36.7934649,0.203967568 L42.6833704,0.201502703 C42.9767516,0.201502703 43.1339643,0.335837838 43.1339643,0.602043243 L43.1339643,2.21406486 C43.1339643,2.45562162 42.9792274,2.56777297 42.6858462,2.56777297 L34.5244029,2.57147027 C34.2334975,2.57393514 34.145607,2.72922162 34.145607,3.01514595 L34.145607,6.48567568 C34.145607,6.81596757 34.2557796,6.92442162 34.5491608,6.92442162 L40.37222,6.92072432 C41.8118921,6.92072432 43.6774003,8.0447027 43.6786382,10.2113189" id="Fill-5"></path>
                                    <path d="M48.9904466,16.0852151 C48.9904466,16.3501881 48.8332339,16.4389232 48.5621349,16.4389232 L46.1816623,16.4413881 C45.9538896,16.4413881 45.8647611,16.352653 45.8647611,16.0864476 L45.8585717,0.576285405 C45.8585717,0.334728649 45.9452243,0.199152599 46.1717592,0.199152599 L48.5547075,0.199152599 C48.8220929,0.197928649 48.9793055,0.331031351 48.9817813,0.576285405 L48.9904466,16.0852151 Z" id="Fill-7"></path>
                                    <path d="M54.7488877,16.6575568 C53.4441461,16.6575568 52.0478003,15.6876324 52.0440866,13.9868757 L52.0403729,4.8828973 C52.0403729,3.64553514 52.5565752,2.69532973 53.6347819,2.05323243 L56.2640714,0.617448649 C56.7579916,0.329059459 57.2989518,0.192259459 57.8597184,0.192259459 L64.6050095,0.191027027 C64.8538264,0.191027027 64.9862812,0.325362162 64.9862812,0.591567568 L64.9924707,2.20112432 C64.9924707,2.44514595 64.8538264,2.55606486 64.6050095,2.55606486 L55.6141764,2.56099459 C55.3430774,2.56099459 55.2106226,2.71381622 55.2106226,3.00220541 L55.2180499,13.6541189 C55.2180499,13.9400432 55.3492668,14.0731459 55.6216038,14.0731459 L61.6229199,14.0694486 C61.869261,14.0669838 62.0499937,13.9363459 62.0499937,13.6504216 L62.0499937,10.5755027 C62.0475179,10.2895784 61.8667852,10.1355243 61.6439641,10.1392216 L59.1260852,10.1392216 C58.8314661,10.1392216 58.7200556,10.0258378 58.7200556,9.78551351 L58.7200556,8.19197838 C58.7200556,7.90851892 58.8314661,7.7976 59.1013273,7.7976 L64.7906938,7.79143784 C65.0580792,7.79020541 65.1930097,7.92454054 65.1930097,8.21046486 L65.1967234,16.0783135 C65.1967234,16.3420541 65.0642686,16.4295568 64.7931696,16.4295568 L62.4572613,16.4320216 C62.188638,16.4320216 62.0499937,16.3420541 62.0499937,16.0573622 L62.0499937,15.6814703 C62.0499937,15.3930811 61.8469789,15.2821622 61.5783557,15.3499459 L55.5535196,16.5688216 C55.2180499,16.6575568 54.9494267,16.6575568 54.7488877,16.6575568" id="Fill-9"></path>
                                    <path d="M82.847624,16.068947 C82.847624,16.3326876 82.7151692,16.4214227 82.4663522,16.4214227 L77.6756977,16.42512 C77.4095502,16.42512 77.2288175,16.3363849 77.1396891,16.0911308 L71.4193752,2.61694703 C71.3760488,2.52821189 71.3092025,2.46535784 71.1977919,2.46535784 C71.0381035,2.46535784 70.9477371,2.57257946 70.9477371,2.70568216 L70.9564024,16.0504605 C70.9564024,16.3363849 70.8004276,16.4275849 70.5070464,16.4275849 L68.2837866,16.4300497 C68.0584896,16.4300497 67.9681233,16.3388497 67.9681233,16.0763416 L67.9582201,0.566179459 C67.9582201,0.322157838 68.0461107,0.187822703 68.2726455,0.187822703 L73.1301464,0.185357838 C73.3764875,0.185357838 73.5547445,0.295044324 73.6438729,0.540298378 L79.3604731,13.9898335 C79.4297952,14.0798011 79.4978795,14.1254011 79.5634879,14.1254011 C79.7231764,14.1254011 79.858107,14.0588497 79.858107,13.9245146 L79.8506796,0.558784865 C79.8506796,0.318460541 79.9843723,0.180428108 80.2542335,0.180428108 L82.457687,0.180428108 C82.705266,0.180428108 82.8389587,0.314763243 82.8401966,0.557552432 L82.847624,16.068947 Z" id="Fill-11"></path>
                                    <path d="M3.26928131,37.1304831 C0.883857197,37.1341751 0.00990316187,35.1856995 0.0074273714,33.94464 L0,21.2518184 C0,20.985613 0.112648466,20.8525103 0.382509627,20.8525103 L2.74193794,20.8512778 C3.0117991,20.8512778 3.1690118,20.9819157 3.1690118,21.2481211 L3.17891496,34.3402508 C3.17891496,34.6274076 3.29032553,34.7605103 3.58123091,34.7605103 L11.1583876,34.7543481 C11.425773,34.7543481 11.6065057,34.8664995 11.6065057,35.0883373 C11.6065057,35.3335914 11.449293,35.532013 11.2277098,35.6638832 L9.31763742,36.7287049 C8.77543931,37.0183265 8.23571699,37.1292454 7.65266833,37.1292454 L3.26928131,37.1304831 Z" id="Fill-13"></path>
                                    <path d="M15.8132451,36.7693751 C15.8132451,37.0355805 15.6560324,37.1255481 15.3849333,37.1255481 L13.0044608,37.1267805 C12.7791639,37.1267805 12.6887975,37.0380454 12.6887975,36.7730724 L12.682608,21.2210076 C12.682608,20.9782184 12.7692607,20.8450823 12.9945576,20.8450823 L15.3812196,20.8450823 C15.6498429,20.8426508 15.8058177,20.9769859 15.8058177,21.2185427 L15.8132451,36.7693751 Z" id="Fill-15"></path>
                                    <path d="M32.1725258,23.3390659 L32.1737636,25.5315632 C32.1737636,26.5064173 31.7924919,27.36912 31.0287106,27.9902659 C30.9383442,28.0814659 30.8714979,28.1677362 30.8714979,28.3230227 C30.8714979,28.4746119 30.9383442,28.5645795 31.0509927,28.6323632 C31.8172498,29.2732281 32.2232976,30.1149795 32.2232976,31.1600822 L32.2232976,32.3999092 C32.2269931,33.6372714 31.661275,34.5911741 30.538504,35.2332714 L27.9562546,36.7208173 C27.4388144,37.0092065 26.8990921,37.1201254 26.2665276,37.1201254 L19.1671984,37.1225903 C18.9171436,37.1225903 18.8267772,37.0350876 18.8267772,36.7688822 L18.8193499,21.2426984 C18.8193499,20.976493 18.9072404,20.8421578 19.1572953,20.8421578 L21.4932036,20.8421578 C21.7630647,20.8409254 21.9215153,20.9740281 21.9215153,21.2390011 L21.9215153,21.5939416 C21.9215153,21.8810984 22.0564459,21.9895524 22.3943913,21.9254659 L28.6197664,20.7041254 C28.9799939,20.657293 29.2498551,20.6153849 29.3835478,20.6153849 C30.5286009,20.6129254 32.1725258,21.4546768 32.1725258,23.3390659 M28.9354801,27.4134876 L28.9354801,23.6471741 C28.9354801,23.3624822 28.7324149,23.1850119 28.4204653,23.1850119 L22.3263071,23.1887092 C22.0366396,23.1887092 21.9227532,23.3661795 21.9227532,23.6508714 L21.9227532,27.4418335 C21.925229,27.7092714 22.0589217,27.8386768 22.3535408,27.8386768 L28.4217032,27.8374443 C28.7373665,27.8374443 28.9391434,27.7043416 28.9354801,27.4134876 M28.9428571,34.3262011 L28.9403813,30.6942227 C28.9403813,30.4058335 28.7373665,30.2074119 28.4217032,30.2074119 L22.3535408,30.2098768 C22.0589217,30.2098768 21.925229,30.387347 21.925229,30.6745038 L21.9289427,34.3520822 C21.9289427,34.6182876 22.0638733,34.7316714 22.3572544,34.7316714 L28.4278927,34.7279741 C28.7398423,34.7279741 28.9428571,34.5948714 28.9428571,34.3262011" id="Fill-17"></path>
                                    <path d="M47.8456411,23.329453 L47.8456411,26.0309449 C47.846879,27.2917232 47.2861124,28.2037232 46.1385836,28.8433557 L44.9712484,29.5322854 C44.7236693,29.6900368 44.656823,29.8638097 44.833842,30.1078314 L48.8186267,36.8171935 C48.9312752,37.06368 48.9089931,37.1055827 48.5933298,37.1055827 L45.8068276,37.10928 C45.5567728,37.10928 45.3351896,37.0205449 45.2225411,36.7765232 L41.8926029,31.1085665 C41.7539586,30.8645449 41.5311375,30.7314422 41.24147,30.7314422 L38.2952794,30.7326746 C38.0241803,30.7326746 37.9127697,30.8879611 37.9127697,31.1553989 L37.9189592,36.735853 C37.9189592,37.0242422 37.7369886,37.1129773 37.4658896,37.1129773 L35.1299813,37.1154422 C34.8588822,37.1154422 34.7685158,37.026707 34.7685158,36.7592692 L34.7598506,21.2330854 C34.7598506,20.96688 34.848979,20.8313124 35.1176023,20.8313124 L37.4559864,20.8313124 C37.7258476,20.8313124 37.9102939,20.9631827 37.9102939,21.2293881 L37.9102939,21.5843286 C37.9102939,21.8936692 38.0415108,22.007053 38.334892,21.9170854 L44.2891681,20.6945124 C44.5837872,20.6501449 44.8524104,20.6057773 45.0541873,20.6057773 C46.1348699,20.6057773 47.8419274,21.4241124 47.8456411,23.329453 M44.6308272,27.8943827 L44.6295893,23.6387935 C44.6295893,23.3541016 44.4736145,23.1988151 44.2012775,23.1988151 L38.2915657,23.2000476 C38.0204666,23.2000476 37.9102939,23.3590314 37.9102939,23.6437232 L37.9127697,27.9202638 C37.9127697,28.2074205 38.0241803,28.3405232 38.2952794,28.3405232 L44.2025154,28.3368259 C44.4773282,28.3368259 44.6308272,28.1827719 44.6308272,27.8943827" id="Fill-19"></path>
                                    <path d="M64.0391676,36.7441103 C64.1295339,37.0090832 64.0391676,37.0978184 63.7470243,37.0978184 L61.340556,37.1015157 C61.0731706,37.1015157 60.8936758,37.0127805 60.8268295,36.7243914 L59.8575575,33.3783373 C59.744909,33.1577319 59.5666521,32.9802616 59.2943152,32.9802616 L53.7869193,32.9827265 C53.5158202,32.9827265 53.3128054,33.1601968 53.2694791,33.3820346 L52.2841145,36.7280886 C52.2147923,37.0164778 52.0798617,37.105213 51.7654363,37.105213 L49.3156417,37.1064454 C49.0693005,37.1064454 49.0036921,37.0189427 49.0693005,36.7539697 L53.8710961,21.19944 C53.9379425,20.9541859 54.1186752,20.8223157 54.3860606,20.8223157 L58.6592749,20.8198508 C58.9712245,20.8198508 59.1556709,20.9529535 59.2423236,21.1969751 L64.0391676,36.7441103 Z M58.9328498,30.1888022 L56.8606131,23.0788995 C56.8172868,22.9482616 56.7009246,22.8607589 56.5263814,22.8607589 C56.3642171,22.8607589 56.2775645,22.9482616 56.2082423,23.0813643 L54.1694289,30.1900346 C54.0790625,30.5030724 54.1904731,30.5918076 54.4603343,30.5918076 L58.575098,30.5893427 C58.9130434,30.5893427 59.0232161,30.50184 58.9328498,30.1888022 L58.9328498,30.1888022 Z" id="Fill-21"></path>
                                    <path d="M78.397762,23.3131849 L78.3989999,26.0159092 C78.3989999,27.2766876 77.841947,28.1874551 76.6944181,28.8270876 L75.5270829,29.5160173 C75.2770281,29.6688389 75.2114197,29.8463092 75.3909145,30.0915632 L79.3769371,36.8021578 C79.4883477,37.044947 79.4660656,37.0893146 79.1504023,37.0893146 L76.3614243,37.0930119 C76.1138453,37.0930119 75.8897862,37.0018119 75.7783757,36.7602551 L72.4484375,31.0910659 C72.3110311,30.8482768 72.08821,30.7151741 71.7935909,30.7151741 L68.8511139,30.7188714 C68.5800149,30.7188714 68.4698422,30.871693 68.4698422,31.1391308 L68.4710801,36.7195849 C68.4710801,37.0092065 68.2915853,37.0967092 68.022962,37.0967092 L65.6845779,37.0967092 C65.4147168,37.0967092 65.3243504,37.0092065 65.3243504,36.7430011 L65.3156852,21.2143524 C65.3156852,20.948147 65.4048136,20.8175092 65.6734369,20.8175092 L68.0130589,20.8150443 C68.2816821,20.8150443 68.4648906,20.948147 68.4648906,21.21312 L68.4648906,21.5680605 C68.4648906,21.8774011 68.5985833,21.9895524 68.8882508,21.9008173 L74.8462406,20.6782443 C75.1383838,20.6338768 75.408245,20.5895092 75.6112598,20.5895092 C76.6907045,20.5895092 78.397762,21.4078443 78.397762,23.3131849 M75.1891375,27.8768822 L75.1829481,23.621293 C75.1829481,23.3378335 75.0269733,23.182547 74.75835,23.182547 L68.8449245,23.1850119 C68.578777,23.1850119 68.4648906,23.3427632 68.4648906,23.6262227 L68.4661285,27.9039957 C68.4661285,28.1911524 68.5800149,28.3242551 68.849876,28.3242551 L74.7608258,28.318093 C75.0294491,28.318093 75.1891375,28.1677362 75.1891375,27.8768822" id="Fill-23"></path>
                                    <path d="M94.0478525,21.1551957 L88.3423933,30.4378768 C88.2062249,30.6597146 88.1158585,30.9049686 88.1158585,31.1711741 L88.1208101,36.7097254 C88.1208101,36.9968822 87.9846416,37.0856173 87.7395384,37.0856173 L85.3813479,37.0868497 C85.1337689,37.0868497 84.9963625,36.9981146 84.9963625,36.7109578 L84.9926488,31.1748714 C84.9926488,30.9049686 84.9047583,30.6621795 84.7673519,30.4403416 L79.0977917,21.1625903 C79.0519896,21.0750876 79.0519896,21.0085362 79.0977917,20.9198011 C79.1411181,20.8507849 79.2116781,20.8064173 79.3230887,20.8064173 L81.9771361,20.8064173 C82.2247151,20.8064173 82.4487741,20.9407524 82.6059868,21.1847741 L86.2515883,27.6944822 C86.3184346,27.8275849 86.4063252,27.8916714 86.5672516,27.8916714 C86.6786621,27.8916714 86.7690285,27.8275849 86.8593949,27.6944822 L90.5186132,21.1798443 C90.6770638,20.9370551 90.8305628,20.80272 91.0793797,20.80272 L93.8448377,20.8014876 C93.9104461,20.8014876 94.0045261,20.8458551 94.0478525,20.9111741 C94.0911788,20.9999092 94.0911788,21.067693 94.0478525,21.1551957" id="Fill-25"></path>
                                </g>
                            </g>
                        </g>
                    </g>
                </g>
            </g>
        </g>
    </g>
</svg>